<?xml version="1.0" encoding="UTF-8" standalone="no"?>
<!-- Created with Inkscape (http://www.inkscape.org/) -->

<svg
   width="1402.0192mm"
   height="1152.0095mm"
   viewBox="0 0 1402.0192 1152.0095"
   version="1.1"
   id="svg1"
   inkscape:version="1.4.3 (0d15f75, 2025-12-25)"
   sodipodi:docname="file1.svg"
   xmlns:inkscape="http://www.inkscape.org/namespaces/inkscape"
   xmlns:sodipodi="http://sodipodi.sourceforge.net/DTD/sodipodi-0.dtd"
   xmlns="http://www.w3.org/2000/svg"
   xmlns:svg="http://www.w3.org/2000/svg">
  <sodipodi:namedview
     id="namedview1"
     pagecolor="#ffffff"
     bordercolor="#000000"
     borderopacity="0.25"
     inkscape:showpageshadow="2"
     inkscape:pageopacity="0.0"
     inkscape:pagecheckerboard="0"
     inkscape:deskcolor="#d1d1d1"
     inkscape:document-units="mm"
     showguides="true"
     inkscape:zoom="0.47946466"
     inkscape:cx="-10373.027"
     inkscape:cy="-4329.829"
     inkscape:window-width="1512"
     inkscape:window-height="945"
     inkscape:window-x="0"
     inkscape:window-y="37"
     inkscape:window-maximized="0"
     inkscape:current-layer="layer1">
    <inkscape:page
       x="0"
       y="0"
       width="1402.0192"
       height="1152.0095"
       id="page2"
       margin="0"
       bleed="0" />
  </sodipodi:namedview>
  <defs
     id="defs1">
    <inkscape:path-effect
       effect="fillet_chamfer"
       id="path-effect14"
       is_visible="true"
       lpeversion="1"
       nodesatellites_param="F,0,0,1,0,7.9374998,0,1 @ F,0,0,1,0,7.9374998,0,1 @ F,0,0,1,0,7.9374998,0,1 @ F,0,0,1,0,7.9374998,0,1 @ F,0,0,1,0,7.9374998,0,1 @ F,0,0,1,0,7.9374998,0,1 @ F,0,0,1,0,7.9374998,0,1 @ F,0,0,1,0,7.9374998,0,1 @ F,0,0,1,0,7.9374998,0,1 @ F,0,0,1,0,7.9374998,0,1 @ F,0,0,1,0,7.9374998,0,1 @ F,0,0,1,0,7.9374998,0,1 @ F,0,0,1,0,7.9374998,0,1"
       radius="30"
       unit="px"
       method="auto"
       mode="F"
       chamfer_steps="1"
       flexible="false"
       use_knot_distance="true"
       apply_no_radius="true"
       apply_with_radius="true"
       only_selected="false"
       hide_knots="false" />
  </defs>
  <g
     inkscape:label="Layer 1"
     inkscape:groupmode="layer"
     id="layer1"
     style="fill:#e9e9e9;fill-opacity:1;stroke:#222222;stroke-width:2;stroke-linecap:round;stroke-linejoin:round;stroke-dasharray:none;stroke-opacity:1"
     transform="translate(2913.0202,1470.4272)">
    <path
       id="rect11"
       style="fill:#ffffff;fill-opacity:1;stroke:#222222;stroke-width:2;stroke-linecap:round;stroke-linejoin:round;stroke-dasharray:none;stroke-opacity:1"
       d="m -2856.6768,-1461.6282 -25.4517,134.4018 a 9.5816986,9.5816986 140.36158 0 1 -9.4144,7.7989 c -0.2583,0 -4.1825,-0.138 -8.2017,1.5395 -4.8412,2.0206 -8.7063,5.8857 -10.7268,10.7269 -1.6775,4.0192 -1.5395,11.2877 -1.5395,15.6715 v 114.1248 829.99996 c 0,4.38376 -0.138,11.65234 1.5395,15.67149 2.0205,4.84122 5.8856,8.7063 10.7268,10.72686 4.0192,1.67747 11.2877,1.53948 15.6715,1.53948 h 1344.1247 c 4.3838,0 11.6523,0.13799 15.6715,-1.53948 4.8412,-2.02057 8.7063,-5.88565 10.7268,-10.72687 1.6775,-4.01915 1.5395,-11.28772 1.5395,-15.67148 v -944.12476 c 0,-4.3838 0.138,-11.6523 -1.5395,-15.6715 -2.0205,-4.8412 -5.8856,-8.7063 -10.7268,-10.7269 -4.0192,-1.6775 -11.2877,-1.5395 -15.6715,-1.5395 h -992.3404 a 9.5697735,9.5697735 39.673482 0 1 -9.4048,-7.8007 l -25.2808,-134.3982 a 9.5697735,9.5697735 39.673482 0 0 -9.4048,-7.8007 l -270.8832,0 a 9.5816986,9.5816986 140.36158 0 0 -9.4144,7.7989 z"
       inkscape:path-effect="#path-effect14"
       inkscape:original-d="m -2855.1999,-1469.4271 -28.4055,149.9996 h -8.4052 c -11.08,0 -20.0003,8.9204 -20.0003,20.0004 v 129.9998 829.99996 c 0,11.08 8.9203,20.00033 20.0003,20.00033 h 1359.9997 c 11.08,0 20.0003,-8.92033 20.0003,-20.00033 v -959.99976 c 0,-11.08 -8.9203,-20.0004 -20.0003,-20.0004 h -1008.2154 l -28.2154,-149.9996 z" />
  </g>
</svg>
